<svg width="21" height="20" viewBox="0 0 21 20" fill="none" xmlns="http://www.w3.org/2000/svg">
<path d="M9.50569 0.85958C9.80554 -0.0606967 11.1075 -0.0606959 11.4073 0.859581L13.1584 6.23398C13.2925 6.64561 13.6763 6.92418 14.1092 6.92418H19.77C20.7393 6.92418 21.1417 8.16521 20.3567 8.73398L15.7818 12.0486C15.4303 12.3033 15.2833 12.7555 15.4177 13.1682L17.1663 18.5349C17.4663 19.4557 16.413 20.2227 15.6288 19.6544L11.0432 16.3321C10.6932 16.0784 10.2198 16.0784 9.86978 16.3321L5.28423 19.6544C4.49997 20.2227 3.44668 19.4557 3.74671 18.5348L5.49528 13.1682C5.62973 12.7555 5.48265 12.3033 5.13119 12.0486L0.556319 8.73398C-0.228687 8.16521 0.173643 6.92418 1.14304 6.92418H6.80379C7.23672 6.92418 7.62048 6.64561 7.7546 6.23398L9.50569 0.85958Z" fill="#070707"/>
</svg>
