<svg width="41" height="40" viewBox="0 0 41 40" fill="none" xmlns="http://www.w3.org/2000/svg">
<path d="M34.3199 0H5.96011C2.72025 0 0.0844727 2.62848 0.0844727 5.85938V34.1406C0.0844727 37.3715 2.72025 40 5.96011 40H34.3199C37.5597 40 40.1955 37.3715 40.1955 34.1406V5.85938C40.1955 2.62848 37.5597 0 34.3199 0ZM37.8453 34.1406C37.8453 36.0791 36.2637 37.6562 34.3199 37.6562H5.96011C4.01625 37.6562 2.43473 36.0791 2.43473 34.1406V5.85938C2.43473 3.9209 4.01625 2.34375 5.96011 2.34375H34.3199C36.2637 2.34375 37.8453 3.9209 37.8453 5.85938V34.1406Z" fill="#070707" stroke="#070707" stroke-width="0.5"/>
</svg>
